<svg xmlns="http://www.w3.org/2000/svg" xmlns:xlink="http://www.w3.org/1999/xlink" width="440" height="670" viewBox="0 0 440 670">
  <defs>
    <clipPath id="clip-path">
      <rect id="Rectangle_26" data-name="Rectangle 26" width="440" height="670" rx="10" transform="translate(860 2040)" fill="#b99cad"/>
    </clipPath>
  </defs>
  <g id="Mask_Group" data-name="Mask Group" transform="translate(-860 -2040)">
    <g id="Rectangle_26-2" data-name="Rectangle 26" clip-path="url(#clip-path)">
      <g id="Group_52" data-name="Group 52">
        <g id="Group">
          <path id="Vector" d="M0,0H455V670H0Z" transform="translate(852 2040)" fill="#003dcb"/>
        </g>
        <g id="Group-2" data-name="Group">
          <path id="Vector-2" data-name="Vector" d="M416,0,29.335,670H0V0Z" transform="translate(852 2040)" fill="#2860e1"/>
        </g>
        <g id="Group-3" data-name="Group">
          <path id="Vector-3" data-name="Vector" d="M65.2,28.2A40.527,40.527,0,0,0,57,42.8L36.8,106.2,0,163.3V193H68.1l15.5-43.6a52.732,52.732,0,0,0,31.8-25.2l10.1-18.3L89.7,0Z" transform="translate(852 2464.6)" fill="#ea978b"/>
        </g>
        <g id="Group-4" data-name="Group">
          <path id="Vector-4" data-name="Vector" d="M2.5,9.783,0,24.883a108.773,108.773,0,0,0,25.4,9.3,50.8,50.8,0,0,0,8.6-11.5l10.1-18.3-.2-.5C32.9.083,11.3-4.617,2.5,9.783Z" transform="translate(933.3 2566.117)" fill="#c86a5d"/>
        </g>
        <g id="Group-5" data-name="Group">
          <path id="Vector-5" data-name="Vector" d="M263.806,177.8l-1.1-.7a17.525,17.525,0,0,0,.5-4l-4.5-159A14.517,14.517,0,0,0,243.806,0L14.006,6.4a13.546,13.546,0,0,0-5,1.1l-1.5-1-4.4,5.4a14.771,14.771,0,0,0-3.1,9.4l4.5,159a14.517,14.517,0,0,0,14.9,14.1l229.8-6.4a14.492,14.492,0,0,0,11.2-5.8Z" transform="translate(936.994 2395.596)" fill="#101d37"/>
        </g>
        <g id="Group-6" data-name="Group">
          <path id="Vector-6" data-name="Vector" d="M243.9,0,14.1,6.4A14.517,14.517,0,0,0,0,21.3l4.5,159a14.517,14.517,0,0,0,14.9,14.1L249.2,188a14.517,14.517,0,0,0,14.1-14.9l-4.5-159A14.517,14.517,0,0,0,243.9,0Z" transform="translate(940.495 2391.195)" fill="#364157"/>
        </g>
        <g id="Group-7" data-name="Group">
          <path id="Vector-7" data-name="Vector" d="M227.6,0,6,6.2a6.235,6.235,0,0,0-6,6.4L4.4,170.1a6.235,6.235,0,0,0,6.4,6l221.6-6.2a6.235,6.235,0,0,0,6-6.4L234,6A6.173,6.173,0,0,0,227.6,0Z" transform="translate(952.897 2400.297)" fill="#ffecd4"/>
        </g>
        <g id="Group-8" data-name="Group">
          <g id="Group-9" data-name="Group">
            <path id="Vector-8" data-name="Vector" d="M0,0H69.1V42H0Z" transform="translate(1083.124 2442.776) rotate(-1.606)" fill="#fff"/>
          </g>
          <g id="Group-10" data-name="Group">
            <path id="Vector-9" data-name="Vector" d="M1.852,0,.252,3.8a3.209,3.209,0,0,0,1.9,4.3,3.3,3.3,0,0,0,4.1-1.7l2.2-5Z" transform="translate(1102.648 2472.9)" fill="#ea978b"/>
          </g>
          <g id="Group-11" data-name="Group">
            <path id="Vector-10" data-name="Vector" d="M11.1,0,8.4.1A4.58,4.58,0,0,0,4.3,3L0,13.8l7.4,1.4Z" transform="translate(1103.5 2459.1)" fill="#9b4d60"/>
          </g>
          <g id="Group-12" data-name="Group">
            <path id="Vector-11" data-name="Vector" d="M19.5,1.908l3,22.6-22.5.7.6-22.6A2.219,2.219,0,0,1,2.8.408l14.3-.4A2.166,2.166,0,0,1,19.5,1.908Z" transform="translate(1110 2458.792)" fill="#cea89e"/>
          </g>
          <g id="Group-13" data-name="Group">
            <path id="Vector-12" data-name="Vector" d="M10.1,0,0,.3A5.067,5.067,0,0,0,5.2,5,5.061,5.061,0,0,0,10.1,0Z" transform="translate(1114.7 2458.8)" fill="#b78274"/>
          </g>
          <g id="Group-14" data-name="Group">
            <path id="Vector-13" data-name="Vector" d="M8.5,0A4.253,4.253,0,1,1,0,.3" transform="translate(1115.6 2458.8)" fill="#ea978b"/>
          </g>
          <g id="Group-15" data-name="Group">
            <path id="Vector-14" data-name="Vector" d="M0,0H5.5V6.3H0Z" transform="translate(1116.911 2454.775) rotate(-1.606)" fill="#ea978b"/>
          </g>
          <g id="Group-16" data-name="Group">
            <path id="Vector-15" data-name="Vector" d="M4.6,13.1A4.355,4.355,0,0,1,.1,8.9L0,4.5a4.353,4.353,0,1,1,8.7-.3l.1,4.4A4.355,4.355,0,0,1,4.6,13.1Z" transform="translate(1113.596 2446.296)" fill="#ea978b"/>
          </g>
          <g id="Group-17" data-name="Group">
            <path id="Vector-16" data-name="Vector" d="M6.792,4.647a17.434,17.434,0,0,1-6.2,1,3.848,3.848,0,0,1-.4-3.1c.2-.6,3.7-2.2,5.4-2.5a2.513,2.513,0,0,1,2.8,1.4s.9,0,1.2.4.1,5,.1,5l-1.7.7-.7-.6a1.612,1.612,0,0,1-.4-.7Z" transform="translate(1113.009 2445.752)" fill="#272652"/>
          </g>
          <g id="Group-18" data-name="Group">
            <path id="Vector-17" data-name="Vector" d="M2.6,1.3A1.3,1.3,0,1,1,1.3,0,1.3,1.3,0,0,1,2.6,1.3Z" transform="translate(1120.349 2452.814) rotate(-20.334)" fill="#ea978b"/>
          </g>
          <g id="Group-19" data-name="Group">
            <path id="Vector-18" data-name="Vector" d="M0,.526a4.144,4.144,0,0,0,3.2-.5c.3-.1.5.1.4.4-.3.7-1.2,1.7-3.6,2Z" transform="translate(1117 2458.674)" fill="#ce6357"/>
          </g>
          <g id="Group-20" data-name="Group">
            <path id="Vector-19" data-name="Vector" d="M.8.4A.4.4,0,1,1,.4,0,.4.4,0,0,1,.8.4Z" transform="translate(1117.9 2452.4)" fill="#272652"/>
          </g>
          <g id="Group-21" data-name="Group">
            <path id="Vector-20" data-name="Vector" d="M.8.4A.4.4,0,1,1,.4,0,.4.4,0,0,1,.8.4Z" transform="translate(1114.8 2452.5)" fill="#272652"/>
          </g>
          <g id="Group-22" data-name="Group">
            <g id="Group-23" data-name="Group">
              <path id="Vector-21" data-name="Vector" d="M.8,2.1.4,2C.3,2,.1,1.9.1,1.8A.6.6,0,0,1,0,1.4L.4,0,.7.1.3,1.5v.2a.1.1,0,0,0,.1.1l.4.1Z" transform="translate(1115.9 2453.2)" fill="#272652"/>
            </g>
          </g>
          <g id="Group-24" data-name="Group">
            <g id="Group-25" data-name="Group">
              <path id="Vector-22" data-name="Vector" d="M.7.9A2.442,2.442,0,0,1,0,.8L.1.5A1.654,1.654,0,0,0,1.9,0l.2.2A2.1,2.1,0,0,1,.7.9Z" transform="translate(1116.5 2456.1)" fill="#272652"/>
            </g>
          </g>
          <g id="Group-26" data-name="Group">
            <path id="Vector-23" data-name="Vector" d="M0,1.6l3.6,17a3.326,3.326,0,0,0,3.3,2.7h.6L10.1,15,4.7,0Z" transform="translate(1098.8 2459.8)" fill="#ea978b"/>
          </g>
          <g id="Group-27" data-name="Group">
            <path id="Vector-24" data-name="Vector" d="M6.486,6.6,6.174,3.775l-.6-2.3c0-.2-.2-.3-.4-.3a.319.319,0,0,0-.3.3l-.1,2.1-.8-1.9c-.1-.2-.2-.3-.3-.5l-1.1-1.1a.446.446,0,0,0-.5,0,.44.44,0,0,0-.1.5l.7,1-1-.5c-.2-.1-.5-.1-.6.1l-.7.7a1.679,1.679,0,0,0-.2,1.8l.7,1.2.9,3.322Z" transform="translate(1097.026 2453.225)" fill="#ea978b"/>
          </g>
          <g id="Group-28" data-name="Group">
            <g id="Group-29" data-name="Group">
              <path id="Vector-25" data-name="Vector" d="M.7,1.6.3.6,0,.2.2,0,.6.5l.3,1Z" transform="translate(1099.5 2454.9)" fill="#1a1a1a"/>
            </g>
          </g>
          <g id="Group-30" data-name="Group">
            <path id="Vector-26" data-name="Vector" d="M0,.2,7.2,0,9.8,11.2l-7.5.2Z" transform="translate(1128.3 2472)" fill="#ea978b"/>
          </g>
          <g id="Group-31" data-name="Group">
            <g id="Group-32" data-name="Group">
              <path id="Vector-27" data-name="Vector" d="M0,0H10.9V.3H0Z" transform="translate(1110.138 2474.713) rotate(-88.426)" fill="#1a1a1a"/>
            </g>
          </g>
          <g id="Group-33" data-name="Group">
            <path id="Vector-28" data-name="Vector" d="M0,.105l2-.1a4.952,4.952,0,0,1,4.9,3.4l3.4,10.2-8.3.2Z" transform="translate(1125.6 2458.695)" fill="#9b4d60"/>
          </g>
          <g id="Group-34" data-name="Group">
            <g id="Group-35" data-name="Group">
              <path id="Vector-29" data-name="Vector" d="M4.5,1.1,0,1.2V.1L4.5,0ZM.3.9,4.2.8V.3L.3.4Z" transform="translate(1112 2470)" fill="#1a1a1a"/>
            </g>
          </g>
          <g id="Group-36" data-name="Group">
            <g id="Group-37" data-name="Group">
              <path id="Vector-30" data-name="Vector" d="M1.2,7.8,0,.1.3,0,1.5,7.8Z" transform="translate(1126.3 2464.8)" fill="#1a1a1a"/>
            </g>
          </g>
        </g>
        <g id="Group-38" data-name="Group">
          <g id="Group-39" data-name="Group">
            <path id="Vector-31" data-name="Vector" d="M0,0H69.1V42H0Z" transform="translate(1084.524 2491.174) rotate(-1.606)" fill="#fff"/>
          </g>
          <g id="Group-40" data-name="Group">
            <path id="Vector-32" data-name="Vector" d="M6.7.5,24.8,0a4.214,4.214,0,0,1,4.3,3.4l3.1,14.8L0,19.1l2.6-15A4.107,4.107,0,0,1,6.7.5Z" transform="translate(1100.4 2513.695)" fill="#e3b681"/>
          </g>
          <g id="Group-41" data-name="Group">
            <path id="Vector-33" data-name="Vector" d="M2.7,11.6,2.4,0,0,11.7Z" transform="translate(1104.1 2520.9)" fill="#cb9c65"/>
          </g>
          <g id="Group-42" data-name="Group">
            <path id="Vector-34" data-name="Vector" d="M10.1,0A5.052,5.052,0,0,1,0,.3" transform="translate(1111.1 2513.8)" fill="#ea978b"/>
          </g>
          <g id="Group-43" data-name="Group">
            <path id="Vector-35" data-name="Vector" d="M0,0H6.5V7.5H0Z" transform="translate(1112.696 2508.99) rotate(-1.606)" fill="#ea978b"/>
          </g>
          <g id="Group-44" data-name="Group">
            <path id="Vector-36" data-name="Vector" d="M5.4,15.5a5.209,5.209,0,0,1-5.3-5L0,5.3A5.209,5.209,0,0,1,5,0a5.209,5.209,0,0,1,5.3,5l.1,5.2A5.279,5.279,0,0,1,5.4,15.5Z" transform="translate(1108.897 2498.896)" fill="#ea978b"/>
          </g>
          <g id="Group-45" data-name="Group">
            <path id="Vector-37" data-name="Vector" d="M0,5.5l7.4-.2c.2,0,.4.1.4.3V7.2a1.05,1.05,0,0,0,.5.9l.4.2,2-.1-.1-3.1A5.251,5.251,0,0,0,5.2,0H5.1A5.4,5.4,0,0,0,0,5.5Z" transform="translate(1108.897 2498.697)" fill="#272652"/>
          </g>
          <g id="Group-46" data-name="Group">
            <path id="Vector-38" data-name="Vector" d="M3,1.5A1.5,1.5,0,1,1,1.5,0,1.5,1.5,0,0,1,3,1.5Z" transform="matrix(0.943, -0.332, 0.332, 0.943, 1116.773, 2506.689)" fill="#ea978b"/>
          </g>
          <g id="Group-47" data-name="Group">
            <path id="Vector-39" data-name="Vector" d="M0,.665a4.876,4.876,0,0,0,3.8-.6.333.333,0,0,1,.5.4c-.4.8-1.4,2-4.2,2.3Z" transform="translate(1112.9 2513.535)" fill="#ce6357"/>
          </g>
          <g id="Group-48" data-name="Group">
            <path id="Vector-40" data-name="Vector" d="M.8.4A.4.4,0,1,1,.4,0,.4.4,0,0,1,.8.4Z" transform="translate(1114 2506.3)" fill="#272652"/>
          </g>
          <g id="Group-49" data-name="Group">
            <path id="Vector-41" data-name="Vector" d="M.8.4A.4.4,0,1,1,.4,0,.4.4,0,0,1,.8.4Z" transform="translate(1110.4 2506.4)" fill="#272652"/>
          </g>
          <g id="Group-50" data-name="Group">
            <g id="Group-51" data-name="Group">
              <path id="Vector-42" data-name="Vector" d="M1,2.5.5,2.4c-.2,0-.3-.1-.4-.3A.9.9,0,0,1,0,1.6L.4,0,.7.1.3,1.7v.2c0,.1.1.1.2.1l.5.1Z" transform="translate(1111.5 2507.1)" fill="#272652"/>
            </g>
          </g>
          <g id="Group-52" data-name="Group">
            <g id="Group-53" data-name="Group">
              <path id="Vector-43" data-name="Vector" d="M.8,1A2.767,2.767,0,0,1,0,.9L.1.6A1.857,1.857,0,0,0,2.2,0l.3.2A3.2,3.2,0,0,1,.8,1Z" transform="translate(1112.4 2510.6)" fill="#272652"/>
            </g>
          </g>
          <g id="Group-54" data-name="Group">
            <g id="Group-55" data-name="Group">
              <path id="Vector-44" data-name="Vector" d="M0,0H.4V12.3H0Z" transform="translate(1106.326 2520.204) rotate(-1.606)" fill="#272652"/>
            </g>
          </g>
          <g id="Group-56" data-name="Group">
            <g id="Group-57" data-name="Group">
              <path id="Vector-45" data-name="Vector" d="M0,0H.4V12.3H0Z" transform="translate(1125.024 2519.604) rotate(-1.606)" fill="#272652"/>
            </g>
          </g>
        </g>
        <g id="Group-58" data-name="Group">
          <path id="Vector-46" data-name="Vector" d="M0,0H90.4V90H0Z" transform="translate(983.954 2445.383) rotate(-1.606)" fill="#fff"/>
        </g>
        <g id="Group-59" data-name="Group">
          <g id="Group-60" data-name="Group">
            <path id="Vector-47" data-name="Vector" d="M31.282,29.982s2.8-3.4,1.5-7-4.6-2.7-3.2-6.2a10.974,10.974,0,0,0-.2-7.8c-1-3-4.8-11.6-15.2-8.2a10.666,10.666,0,0,0-6.4,5.9,11.34,11.34,0,0,0-.9,4.3c.1,6.5-4.3,6-2.6,9.8s-5.1,3.9-4.2,8.3C1.082,33.382,31.282,29.982,31.282,29.982Z" transform="translate(1009.018 2458.817)" fill="#272652"/>
          </g>
          <g id="Group-61" data-name="Group">
            <path id="Vector-48" data-name="Vector" d="M37.9,14.7,21.2,21.5l-5,2-1.9.8a5.99,5.99,0,0,1-7.9-3.6L5.8,19,2.3,8.7,0,1.9l2-.3L9.2.6,13.4,0l.5,1.4,2.5,7.4L37.6,3.9Z" transform="translate(1038.6 2506.9)" fill="#ea978b"/>
          </g>
          <g id="Group-62" data-name="Group">
            <path id="Vector-49" data-name="Vector" d="M2,0,0,3.2l4.1,12A5.916,5.916,0,0,0,12,18.8L18.9,16A27.237,27.237,0,0,1,2,0Z" transform="translate(1040.9 2512.3)" fill="#ce6357"/>
          </g>
          <g id="Group-63" data-name="Group">
            <path id="Vector-50" data-name="Vector" d="M0,.1,1.9,0a10.029,10.029,0,0,1,9.8,6.8l5.2,15.5L5.7,27Z" transform="translate(1035.8 2485.797)" fill="#b56244"/>
          </g>
          <g id="Group-64" data-name="Group">
            <path id="Vector-51" data-name="Vector" d="M36.2,48l3.5-22a25.318,25.318,0,0,0-.2-9.1l-2-9.7A9.115,9.115,0,0,0,28.4,0L5.3.6A5.49,5.49,0,0,0,0,6.3L1.8,48.8Z" transform="translate(1007.797 2485.797)" fill="#b5ae80"/>
          </g>
          <g id="Group-65" data-name="Group">
            <path id="Vector-52" data-name="Vector" d="M13.4,0l2.9,28L.6,28.4,0,8.6A8.265,8.265,0,0,1,8,.1Z" transform="translate(1000.698 2486.5)" fill="#b56244"/>
          </g>
          <g id="Group-66" data-name="Group">
            <g id="Group-67" data-name="Group">
              <path id="Vector-53" data-name="Vector" d="M0,0H.5V16.1H0Z" transform="matrix(0.997, -0.073, 0.073, 0.997, 1015.107, 2498.428)" fill="#272652"/>
            </g>
          </g>
          <g id="Group-68" data-name="Group">
            <path id="Vector-54" data-name="Vector" d="M52.3,19l-6.1.2H46L7.5,20.3l-5,.1a8.9,8.9,0,0,1-1.1-3.6L0,.4,6.7.2,14.3,0h.3l1.2,11.7,25.3-.4h2.3a35.492,35.492,0,0,1,4.7.6,6.322,6.322,0,0,1,4.8,4c.1.1.1.2.1.4l.4,1.3A1.244,1.244,0,0,1,52.3,19Z" transform="translate(1002.1 2514.5)" fill="#ea978b"/>
          </g>
          <g id="Group-69" data-name="Group">
            <path id="Vector-55" data-name="Vector" d="M10.2.6,12,10.4,0,10.8V0Z" transform="translate(1020.1 2475.6)" fill="#ea978b"/>
          </g>
          <g id="Group-70" data-name="Group">
            <path id="Vector-56" data-name="Vector" d="M16.2,0A8.167,8.167,0,0,1,8.3,7.1,8.21,8.21,0,0,1,0,.4Z" transform="translate(1018.4 2486)" fill="#ea978b"/>
          </g>
          <g id="Group-71" data-name="Group">
            <path id="Vector-57" data-name="Vector" d="M8.5,22.1a8.052,8.052,0,0,0,7.8-8.3l-.2-6A8.054,8.054,0,1,0,0,8.3l.2,6A8.179,8.179,0,0,0,8.5,22.1Z" transform="translate(1019.798 2460.798)" fill="#ea978b"/>
          </g>
          <g id="Group-72" data-name="Group">
            <path id="Vector-58" data-name="Vector" d="M2,10.6A11.664,11.664,0,0,0,4.9,5.8,22.2,22.2,0,0,0,17.1,8.3S16.2,0,9.7,0A12.076,12.076,0,0,0,0,4.8L.4,9.9Z" transform="translate(1019.2 2460.5)" fill="#272652"/>
          </g>
          <g id="Group-73" data-name="Group">
            <path id="Vector-59" data-name="Vector" d="M4.4,2.2A2.2,2.2,0,1,1,2.2,0,2.2,2.2,0,0,1,4.4,2.2Z" transform="translate(1018.1 2469.6)" fill="#ea978b"/>
          </g>
          <g id="Group-74" data-name="Group">
            <path id="Vector-60" data-name="Vector" d="M5.22,0A9.38,9.38,0,0,1,.62.3a.552.552,0,0,0-.5.9c.8.8,2.5,1.7,5.7,1.7Z" transform="translate(1026.181 2482.1)" fill="#ce6357"/>
          </g>
          <g id="Group-75" data-name="Group">
            <path id="Vector-61" data-name="Vector" d="M.014,0a7.746,7.746,0,0,0,3.9.9,1.8,1.8,0,0,1-1.9,1.2A1.832,1.832,0,0,1,.014,0Z" transform="translate(1026.586 2477.9)" fill="#e6e6e6"/>
          </g>
          <g id="Group-76" data-name="Group">
            <path id="Vector-62" data-name="Vector" d="M1.2.6A.6.6,0,1,1,.6,0,.6.6,0,0,1,1.2.6Z" transform="translate(1026.4 2471.7)" fill="#272652"/>
          </g>
          <g id="Group-77" data-name="Group">
            <path id="Vector-63" data-name="Vector" d="M1.2.6A.6.6,0,1,1,.6,0,.6.6,0,0,1,1.2.6Z" transform="translate(1031.8 2471.5)" fill="#272652"/>
          </g>
          <g id="Group-78" data-name="Group">
            <g id="Group-79" data-name="Group">
              <path id="Vector-64" data-name="Vector" d="M.2,3.8,0,3.3l.7-.2c.1,0,.2-.1.3-.2a.188.188,0,0,0,0-.3L.2.2.7,0l.8,2.4a.783.783,0,0,1-.1.8,1.024,1.024,0,0,1-.6.5Z" transform="translate(1029.9 2472.7)" fill="#272652"/>
            </g>
          </g>
        </g>
        <g id="Group-80" data-name="Group">
          <path id="Vector-65" data-name="Vector" d="M0,31.553l33.1-29.6a7.625,7.625,0,0,1,11.8,9.3l-16.5,30.3s9.6,33.6-12.3,53.4Z" transform="translate(916.8 2492.047)" fill="#ea978b"/>
        </g>
        <g id="Group-81" data-name="Group">
          <path id="Vector-66" data-name="Vector" d="M0,0H26.3V1.1H0Z" transform="translate(919.662 2520.231) rotate(-41.814)" fill="#1a1a1a"/>
        </g>
        <g id="Group-82" data-name="Group">
          <path id="Vector-67" data-name="Vector" d="M0,12.7V96.2H60.7L81.4,25.9,9.6,0Z" transform="translate(852 2612.9)" fill="#98723c"/>
        </g>
        <g id="Group-83" data-name="Group">
          <g id="Group-84" data-name="Group">
            <path id="Vector-68" data-name="Vector" d="M30.5,3.1,1.6,3.9A1.551,1.551,0,1,1,1.5.8L30.4,0A1.561,1.561,0,0,1,32,1.5,1.444,1.444,0,0,1,30.5,3.1Z" transform="translate(972.5 2430.4)" fill="#351f2c"/>
          </g>
        </g>
        <g id="Group-85" data-name="Group">
          <g id="Group-86" data-name="Group">
            <path id="Vector-69" data-name="Vector" d="M52.3,5.2,2.7,6.6A2.721,2.721,0,0,1,0,4.1,2.721,2.721,0,0,1,2.5,1.4L52.1,0a2.721,2.721,0,0,1,2.7,2.5A2.721,2.721,0,0,1,52.3,5.2Z" transform="translate(971.2 2419.5)" fill="#351f2c"/>
          </g>
        </g>
        <g id="Group-87" data-name="Group">
          <path id="Vector-70" data-name="Vector" d="M20,10A10,10,0,1,1,10,0,10,10,0,0,1,20,10Z" transform="translate(1066.9 2546.8)" fill="#351f2c"/>
        </g>
        <g id="Group-88" data-name="Group">
          <g id="Group-89" data-name="Group">
            <path id="Vector-71" data-name="Vector" d="M10,5A5,5,0,1,1,5,0,5,5,0,0,1,10,5Z" transform="translate(1098.4 2551.1)" fill="#c1929b"/>
          </g>
          <g id="Group-90" data-name="Group">
            <path id="Vector-72" data-name="Vector" d="M10,5A5,5,0,1,1,5,0,5,5,0,0,1,10,5Z" transform="translate(1045.5 2552.6)" fill="#c1929b"/>
          </g>
        </g>
        <g id="Group-91" data-name="Group">
          <path id="Vector-73" data-name="Vector" d="M122.171,127.04l-6.7-14.7-25.8-57.7a8.5,8.5,0,0,0-7.2-5l-5.9-.4-4.5-6.4a8.38,8.38,0,0,0-7.7-3.6l-9.9.8-4.1-5.6a8.559,8.559,0,0,0-9.3-3.2l-7.2,2.1-17.8-29.3A8.212,8.212,0,0,0,5.871.64a7.993,7.993,0,0,0-3.9,10.7l21,44.4,9.7,38.6-16.5-19a9.314,9.314,0,0,0-10.7-2.6,9.121,9.121,0,0,0-4.5,12.5l16.6,32.9a44.608,44.608,0,0,0,21.3,20.5l21.5,9.8,6.2,12.5h55.6v-33.9Z" transform="translate(1132.629 2548.561)" fill="#ea978b"/>
        </g>
        <g id="Group-92" data-name="Group">
          <path id="Vector-74" data-name="Vector" d="M0,0H1.1V18.7H0Z" transform="matrix(0.867, -0.499, 0.499, 0.867, 1166.008, 2581.997)" fill="#1a1a1a"/>
        </g>
        <g id="Group-93" data-name="Group">
          <path id="Vector-75" data-name="Vector" d="M0,0H1.1V13.4H0Z" transform="translate(1186.537 2588.728) rotate(-29.631)" fill="#1a1a1a"/>
        </g>
        <g id="Group-94" data-name="Group">
          <path id="Vector-76" data-name="Vector" d="M0,0H1.1V9.2H0Z" transform="translate(1208.608 2598.102) rotate(-29.623)" fill="#1a1a1a"/>
        </g>
        <g id="Group-95" data-name="Group">
          <path id="Vector-77" data-name="Vector" d="M0,12.7,9.6,0,81.4,25.9,70,64.7,0,37.7Z" transform="translate(852 2612.9)" fill="#c3a16f"/>
        </g>
        <g id="Group-96" data-name="Group">
          <path id="Vector-78" data-name="Vector" d="M79.4,39.7A39.7,39.7,0,1,1,39.7,0,39.7,39.7,0,0,1,79.4,39.7Z" transform="translate(886.637 2289.208) rotate(-14.271)" fill="#666"/>
        </g>
        <g id="Group-97" data-name="Group">
          <path id="Vector-79" data-name="Vector" d="M79.4,39.7A39.727,39.727,0,0,1,22.3,75.4a38.336,38.336,0,0,1-7.2-4.6A39.674,39.674,0,1,1,76.4,24.6a31.609,31.609,0,0,1,1.7,5.2A40.718,40.718,0,0,1,79.4,39.7Z" transform="translate(895.2 2278.2)" fill="#c1929b"/>
        </g>
        <g id="Group-98" data-name="Group">
          <path id="Vector-80" data-name="Vector" d="M70.6,35.4A35.275,35.275,0,0,1,19.8,67.1,30.359,30.359,0,0,1,13.4,63,35.317,35.317,0,1,1,68,21.9a37.455,37.455,0,0,1,2.6,13.5Z" transform="translate(1172.9 2225.8)" fill="#c6c974"/>
        </g>
        <g id="Group-99" data-name="Group">
          <path id="Vector-81" data-name="Vector" d="M64.3,15A39.733,39.733,0,0,1,24.6,54.7a39.349,39.349,0,0,1-17.4-4A38.336,38.336,0,0,1,0,46.1V8.4A8.386,8.386,0,0,1,8.4,0H61.3A31.609,31.609,0,0,1,63,5.2,39.279,39.279,0,0,1,64.3,15Z" transform="translate(910.3 2302.9)" fill="#364157"/>
        </g>
        <g id="Group-100" data-name="Group">
          <path id="Vector-82" data-name="Vector" d="M57.1,9.8A39.733,39.733,0,0,1,17.4,49.5,39.349,39.349,0,0,1,0,45.5V3.6A3.585,3.585,0,0,1,3.6,0H55.8A39.279,39.279,0,0,1,57.1,9.8Z" transform="translate(917.5 2308.1)" fill="#fff"/>
        </g>
        <g id="Group-101" data-name="Group">
          <g id="Group-102" data-name="Group">
            <path id="Vector-83" data-name="Vector" d="M9.1,18.2a9.1,9.1,0,1,1,9.1-9.1A9.133,9.133,0,0,1,9.1,18.2Zm0-16.4a7.3,7.3,0,1,0,7.3,7.3A7.341,7.341,0,0,0,9.1,1.8Z" transform="translate(925.8 2317.3)" fill="#974559"/>
          </g>
        </g>
        <g id="Group-103" data-name="Group">
          <g id="Group-104" data-name="Group">
            <path id="Vector-84" data-name="Vector" d="M9,4.5A4.5,4.5,0,1,1,4.5,0,4.5,4.5,0,0,1,9,4.5Z" transform="translate(928.562 2325.564) rotate(-37.418)" fill="#974559"/>
          </g>
        </g>
        <g id="Group-105" data-name="Group">
          <g id="Group-106" data-name="Group">
            <path id="Vector-85" data-name="Vector" d="M7.4,8.5a.764.764,0,0,1-.2.5,1.072,1.072,0,0,1-.6.2.6.6,0,0,1-.4-.1l-.3-.3L4.2,6.2a3.807,3.807,0,0,0-.5-.6,1.549,1.549,0,0,0-.8-.2H1.6V8.3a.845.845,0,0,1-.2.6c-.1.2-.3.2-.6.2a1.072,1.072,0,0,1-.6-.2A.735.735,0,0,1,0,8.3V.8A1.421,1.421,0,0,1,.2.2.845.845,0,0,1,.8,0H4A3.612,3.612,0,0,1,6.4.7a2.629,2.629,0,0,1,.8,2,2.352,2.352,0,0,1-.6,1.7,3.111,3.111,0,0,1-1.7.9c.2.1.5.2.7.3s.4.4.6.6L7.4,8C7.3,8.2,7.4,8.4,7.4,8.5ZM5.1,3.9a1.246,1.246,0,0,0,.4-1.1,1.246,1.246,0,0,0-.4-1.1,2.649,2.649,0,0,0-1.4-.3H1.5V4.3H3.7A3.355,3.355,0,0,0,5.1,3.9Z" transform="translate(948.2 2322.3)" fill="#974559"/>
          </g>
          <g id="Group-107" data-name="Group">
            <path id="Vector-86" data-name="Vector" d="M5.8,4.9a.749.749,0,0,1,.1.5c0,.3-.2.5-.5.7a3,3,0,0,1-1,.4,4.1,4.1,0,0,1-1.1.1A3.244,3.244,0,0,1,.9,5.7,3.244,3.244,0,0,1,0,3.3,3.287,3.287,0,0,1,.4,1.6,3.179,3.179,0,0,1,1.5.4,2.934,2.934,0,0,1,3.1,0,2.41,2.41,0,0,1,4.6.4a2.707,2.707,0,0,1,1,1.1,4.146,4.146,0,0,1,.3,1.6c0,.4-.2.6-.5.6H1.6A2.226,2.226,0,0,0,2.1,5a1.594,1.594,0,0,0,1.2.4A1.483,1.483,0,0,0,4,5.3,4.875,4.875,0,0,1,4.7,5c.3-.1.4-.2.6-.2A.4.4,0,0,1,5.8,4.9ZM2.2,1.5a2.2,2.2,0,0,0-.5,1.2H4.6a1.594,1.594,0,0,0-.4-1.2,1.159,1.159,0,0,0-1-.4A1.284,1.284,0,0,0,2.2,1.5Z" transform="translate(956.5 2325)" fill="#974559"/>
          </g>
          <g id="Group-108" data-name="Group">
            <path id="Vector-87" data-name="Vector" d="M1.5,6.1A2.905,2.905,0,0,1,.4,5,3.287,3.287,0,0,1,0,3.3,3.287,3.287,0,0,1,.4,1.6,4.263,4.263,0,0,1,1.5.4,3.287,3.287,0,0,1,3.2,0a3.4,3.4,0,0,1,1,.1,3.552,3.552,0,0,1,.9.4.755.755,0,0,1,.4.7.9.9,0,0,1-.1.5.52.52,0,0,1-.4.2.367.367,0,0,1-.3-.1c-.1,0-.2-.1-.3-.2a2.186,2.186,0,0,1-.5-.3,1.268,1.268,0,0,0-.6-.1,1.656,1.656,0,0,0-1.2.5,2.076,2.076,0,0,0-.4,1.5,2.41,2.41,0,0,0,.4,1.5,1.656,1.656,0,0,0,1.2.5,1.268,1.268,0,0,0,.6-.1l.6-.3c.1-.1.2-.1.3-.2a.367.367,0,0,1,.3-.1c.1,0,.3.1.3.2a.749.749,0,0,1,.1.5.6.6,0,0,1-.1.4l-.3.3a3.552,3.552,0,0,1-.9.4,4.1,4.1,0,0,1-1.1.1A2.223,2.223,0,0,1,1.5,6.1Z" transform="translate(963.5 2325)" fill="#974559"/>
          </g>
        </g>
        <g id="Group-109" data-name="Group">
          <path id="Vector-88" data-name="Vector" d="M11.5,23A11.5,11.5,0,1,1,23,11.5,11.5,11.5,0,0,1,11.5,23Zm0-21A9.5,9.5,0,1,0,21,11.5,9.5,9.5,0,0,0,11.5,2Z" transform="translate(880.3 2372.6)" fill="#fff"/>
        </g>
        <g id="Group-110" data-name="Group">
          <path id="Vector-89" data-name="Vector" d="M21.6,43.2A21.6,21.6,0,1,1,43.2,21.6,21.638,21.638,0,0,1,21.6,43.2Zm0-41.3A19.6,19.6,0,1,0,41.2,21.5,19.632,19.632,0,0,0,21.6,1.9Z" transform="translate(1151.9 2316.8)" fill="#fff"/>
        </g>
        <g id="Group-111" data-name="Group">
          <path id="Vector-90" data-name="Vector" d="M9.8,19.6a9.8,9.8,0,1,1,9.8-9.8A9.816,9.816,0,0,1,9.8,19.6Zm0-16.8a7,7,0,1,0,7,7A7.086,7.086,0,0,0,9.8,2.8Z" transform="translate(1220 2176)" fill="#fff"/>
        </g>
        <g id="Group-112" data-name="Group">
          <path id="Vector-91" data-name="Vector" d="M8.2,16.4a8.2,8.2,0,1,1,8.2-8.2A8.237,8.237,0,0,1,8.2,16.4Zm0-14.3a6.2,6.2,0,1,0,6.2,6.2A6.231,6.231,0,0,0,8.2,2.1Z" transform="translate(996.8 2295.6)" fill="#fff"/>
        </g>
        <g id="Group-113" data-name="Group">
          <path id="Vector-92" data-name="Vector" d="M9.8,4.9A4.9,4.9,0,1,1,4.9,0,4.9,4.9,0,0,1,9.8,4.9Z" transform="translate(856 2625.2)" fill="#202343"/>
        </g>
        <g id="Group-114" data-name="Group">
          <path id="Vector-93" data-name="Vector" d="M119.1,59.5a59.129,59.129,0,0,1-16.4,41,57.864,57.864,0,0,1-10.4,8.7A60.933,60.933,0,0,1,78,116.1,59.228,59.228,0,0,1,59.5,119a58.551,58.551,0,0,1-25.8-5.9,60.671,60.671,0,0,1-8.2-4.8,56.312,56.312,0,0,1-10.6-9.5A59.508,59.508,0,1,1,119.1,59.5Z" transform="translate(1007.8 2189.899)" fill="#e3b681"/>
        </g>
        <g id="Group-115" data-name="Group">
          <g id="Group-116" data-name="Group">
            <path id="Vector-94" data-name="Vector" d="M46.2,23.1A23.1,23.1,0,1,1,23.1,0,23.1,23.1,0,0,1,46.2,23.1Z" transform="matrix(0.988, -0.155, 0.155, 0.988, 1091.499, 2196.745)" fill="#9b4d60"/>
          </g>
        </g>
        <g id="Group-117" data-name="Group">
          <g id="Group-118" data-name="Group">
            <path id="Vector-95" data-name="Vector" d="M6.9,4.8A3.251,3.251,0,0,1,8.2,6.1a4.228,4.228,0,0,1,.5,2,3.7,3.7,0,0,1-.6,2.1,3.638,3.638,0,0,1-1.6,1.4,5.555,5.555,0,0,1-2.3.5,6.448,6.448,0,0,1-2-.3,4.608,4.608,0,0,1-1.7-.9c-.2-.1-.3-.3-.4-.4A.749.749,0,0,1,0,10a2.353,2.353,0,0,1,.2-.8.864.864,0,0,1,.6-.3.6.6,0,0,1,.4.1.758.758,0,0,1,.4.2,6.575,6.575,0,0,0,1.2.6A2.537,2.537,0,0,0,4,10a2.545,2.545,0,0,0,1.6-.5,1.624,1.624,0,0,0,.5-1.4,2.168,2.168,0,0,0-.5-1.4,2.456,2.456,0,0,0-1.5-.5,3.083,3.083,0,0,0-1,.1,4.671,4.671,0,0,0-1,.5,1.854,1.854,0,0,1-.7.2,1.445,1.445,0,0,1-.7-.2.908.908,0,0,1-.3-.7V1.2A1.222,1.222,0,0,1,.7.3,1.222,1.222,0,0,1,1.6,0H7c.8,0,1.3.3,1.3,1S7.9,2,7,2H3.1V4.7A3.83,3.83,0,0,1,5,4.2,3.881,3.881,0,0,1,6.9,4.8Z" transform="translate(1103.9 2210.2)" fill="#fff"/>
          </g>
          <g id="Group-119" data-name="Group">
            <path id="Vector-96" data-name="Vector" d="M1.1,10.6A7.321,7.321,0,0,1,0,6.1,7.842,7.842,0,0,1,1.1,1.6,4.076,4.076,0,0,1,4.4,0,3.816,3.816,0,0,1,7.7,1.6,7.321,7.321,0,0,1,8.8,6.1a7.842,7.842,0,0,1-1.1,4.5,3.941,3.941,0,0,1-3.3,1.6A4.381,4.381,0,0,1,1.1,10.6ZM5.9,9.1A8.281,8.281,0,0,0,6.3,6a10.522,10.522,0,0,0-.4-3.1,1.611,1.611,0,0,0-1.4-1,1.379,1.379,0,0,0-1.4,1A7.956,7.956,0,0,0,2.7,6a7.956,7.956,0,0,0,.4,3.1,1.48,1.48,0,0,0,2.8,0Z" transform="translate(1114.2 2210.2)" fill="#fff"/>
          </g>
          <g id="Group-120" data-name="Group">
            <path id="Vector-97" data-name="Vector" d="M8.1,3.5a.864.864,0,0,1,.3.6.713.713,0,0,1-.3.6.864.864,0,0,1-.6.3H5.1V7.4a.713.713,0,0,1-.3.6.735.735,0,0,1-.6.2A1.072,1.072,0,0,1,3.6,8a.864.864,0,0,1-.3-.6V5H.9a.713.713,0,0,1-.6-.3A.864.864,0,0,1,0,4.1a.713.713,0,0,1,.3-.6.735.735,0,0,1,.6-.2H3.3V.9A.713.713,0,0,1,3.6.3.864.864,0,0,1,4.2,0a.713.713,0,0,1,.6.3.864.864,0,0,1,.3.6V3.3H7.5A1.421,1.421,0,0,1,8.1,3.5Z" transform="translate(1124.9 2213.2)" fill="#fff"/>
          </g>
        </g>
        <g id="Group-121" data-name="Group">
          <path id="Vector-98" data-name="Vector" d="M27.5,7.7a17.788,17.788,0,0,0-9.8-5L0,0,18.1,8.2l6.2,12.5H40.5Z" transform="translate(1174.9 2688.4)" fill="#c86a5d"/>
        </g>
        <g id="Group-122" data-name="Group">
          <g id="Group-123" data-name="Group">
            <path id="Vector-99" data-name="Vector" d="M25.6,46.1a57.864,57.864,0,0,1-10.4,8.7A60.933,60.933,0,0,1,.9,61.7L0,0H5.7A15.5,15.5,0,0,1,20.9,13.5Z" transform="translate(1085 2244.3)" fill="#9b4d60"/>
          </g>
          <g id="Group-124" data-name="Group">
            <path id="Vector-100" data-name="Vector" d="M66.8,54.8a60.934,60.934,0,0,1-14.3,6.9A59.228,59.228,0,0,1,34,64.6,58.551,58.551,0,0,1,8.2,58.7,60.671,60.671,0,0,1,0,53.9L1.1,11.3A11.613,11.613,0,0,1,12.7,0H57.4a6.081,6.081,0,0,1,5.9,5.7Z" transform="translate(1033.3 2244.3)" fill="#fff"/>
          </g>
          <g id="Group-125" data-name="Group">
            <path id="Vector-101" data-name="Vector" d="M14.9,1.2l2.2,14H0L.4,0Z" transform="translate(1058.7 2229.1)" fill="#ea978b"/>
          </g>
          <g id="Group-126" data-name="Group">
            <path id="Vector-102" data-name="Vector" d="M22.8,0A11.689,11.689,0,0,1,11.4,9.8,11.443,11.443,0,0,1,0,0Z" transform="translate(1056.5 2244.3)" fill="#ea978b"/>
          </g>
          <g id="Group-127" data-name="Group">
            <path id="Vector-103" data-name="Vector" d="M6.9,0s3.3,7.4-.8,10C2.1,12.6,0,2.9,0,2.9Z" transform="translate(1075.7 2211.6)" fill="#272652"/>
          </g>
          <g id="Group-128" data-name="Group">
            <path id="Vector-104" data-name="Vector" d="M11.4,31.3A11.4,11.4,0,0,0,22.8,19.9V11.4A11.4,11.4,0,1,0,0,11.4v8.5A11.4,11.4,0,0,0,11.4,31.3Z" transform="translate(1059.1 2208.3)" fill="#ea978b"/>
          </g>
          <g id="Group-129" data-name="Group">
            <path id="Vector-105" data-name="Vector" d="M1.242,8.37a2.186,2.186,0,0,1,.3-.5c-.6-.2-1.4-.5-1.3-1,.2-1,1.7-.2,2-.1-.2-.4-1.5-2.8-.1-2.7.5,0,.8.9,1,1.5,3.3-3.8,8.2-6,16.8-5.5,4.1.3,10.1,4.6,6.2,11.5-3.1,5.5-19.1,2.4-19.1,2.4v2.9a1.75,1.75,0,0,1-.7,1.4l-1.1.8-2.5,6.8s-.4-.9-1.2-2.8C.642,20.67-1.258,12.67,1.242,8.37Z" transform="translate(1056.259 2203.029)" fill="#272652"/>
          </g>
          <g id="Group-130" data-name="Group">
            <path id="Vector-106" data-name="Vector" d="M6.2,3.1A3.1,3.1,0,1,1,3.1,0,3.1,3.1,0,0,1,6.2,3.1Z" transform="translate(1056.5 2221.4)" fill="#ea978b"/>
          </g>
          <g id="Group-131" data-name="Group">
            <path id="Vector-107" data-name="Vector" d="M7.5,0A14.772,14.772,0,0,1,.9.3.724.724,0,0,0,.2,1.5C1.3,2.7,3.6,4,8.1,4.2Z" transform="translate(1067.398 2238.7)" fill="#ce6357"/>
          </g>
          <g id="Group-132" data-name="Group">
            <path id="Vector-108" data-name="Vector" d="M.012,0a10.343,10.343,0,0,0,5.5,1.4A2.4,2.4,0,0,1,2.812,3,2.661,2.661,0,0,1,.012,0Z" transform="translate(1068.188 2232.6)" fill="#e6e6e6"/>
          </g>
          <g id="Group-133" data-name="Group">
            <path id="Vector-109" data-name="Vector" d="M1.8.9A.9.9,0,1,1,.9,0,.9.9,0,0,1,1.8.9Z" transform="translate(1068.2 2223.7)" fill="#272652"/>
          </g>
          <g id="Group-134" data-name="Group">
            <path id="Vector-110" data-name="Vector" d="M1.8.9A.9.9,0,1,1,.9,0,.9.9,0,0,1,1.8.9Z" transform="translate(1075.9 2223.7)" fill="#272652"/>
          </g>
          <g id="Group-135" data-name="Group">
            <path id="Vector-111" data-name="Vector" d="M.2,5.4,0,4.7l1-.3c.2,0,.3-.1.4-.3a.446.446,0,0,0,0-.5L.3.2,1,0,2.1,3.4A1.417,1.417,0,0,1,2,4.5a1.779,1.779,0,0,1-.8.7Z" transform="translate(1073.1 2225.3)" fill="#272652"/>
          </g>
          <g id="Group-136" data-name="Group">
            <path id="Vector-112" data-name="Vector" d="M18.8,56.7v2a60.671,60.671,0,0,1-8.2-4.8A56.312,56.312,0,0,1,0,44.4L3.7,13.6A15.391,15.391,0,0,1,19.1,0h6.1Z" transform="translate(1022.7 2244.4)" fill="#9b4d60"/>
          </g>
        </g>
        <g id="Group-137" data-name="Group">
          <path id="Vector-113" data-name="Vector" d="M119,59.5A59.5,59.5,0,1,1,59.5,0,59.5,59.5,0,0,1,119,59.5Z" transform="translate(1007.9 2189.9)" fill="none"/>
        </g>
        <g id="Group-138" data-name="Group">
          <path id="Vector-114" data-name="Vector" d="M33.4,29.2,0,14.3,28.9,0l1.3,2.6L6.7,14.2,34.6,26.6Z" transform="translate(1188.7 2246.6)" fill="#351f2c"/>
        </g>
        <g id="Group-139" data-name="Group">
          <path id="Vector-115" data-name="Vector" d="M15.6,7.8A7.8,7.8,0,1,1,7.8,0,7.8,7.8,0,0,1,15.6,7.8Z" transform="translate(1214.5 2266.8)" fill="#fff"/>
        </g>
        <g id="Group-140" data-name="Group">
          <path id="Vector-116" data-name="Vector" d="M5.2,2.6A2.6,2.6,0,1,1,2.6,0,2.6,2.6,0,0,1,5.2,2.6Z" transform="translate(1219.7 2270.5)" fill="#351f2c"/>
        </g>
        <g id="Group-141" data-name="Group">
          <path id="Vector-117" data-name="Vector" d="M4.4,0A4.439,4.439,0,0,0,0,4.4,7.67,7.67,0,0,0,4.4,5.8,7.441,7.441,0,0,0,8.8,4.4,4.439,4.439,0,0,0,4.4,0Z" transform="translate(1217.9 2276.6)" fill="#351f2c"/>
        </g>
        <g id="Group-142" data-name="Group">
          <path id="Vector-118" data-name="Vector" d="M15.6,7.8A7.8,7.8,0,1,1,7.8,0,7.8,7.8,0,0,1,15.6,7.8Z" transform="translate(1210.5 2240.8)" fill="#e3b681"/>
        </g>
        <g id="Group-143" data-name="Group">
          <path id="Vector-119" data-name="Vector" d="M5.2,2.6A2.6,2.6,0,1,1,2.6,0,2.6,2.6,0,0,1,5.2,2.6Z" transform="translate(1215.7 2244.5)" fill="#351f2c"/>
        </g>
        <g id="Group-144" data-name="Group">
          <path id="Vector-120" data-name="Vector" d="M4.4,0A4.439,4.439,0,0,0,0,4.4,7.67,7.67,0,0,0,4.4,5.8,7.441,7.441,0,0,0,8.8,4.4,4.439,4.439,0,0,0,4.4,0Z" transform="translate(1213.9 2250.6)" fill="#351f2c"/>
        </g>
        <g id="Group-145" data-name="Group">
          <path id="Vector-121" data-name="Vector" d="M22,11A11,11,0,1,1,11,0,11,11,0,0,1,22,11Z" transform="translate(1180.9 2249.9)" fill="#c1929b"/>
        </g>
        <g id="Group-146" data-name="Group">
          <path id="Vector-122" data-name="Vector" d="M7.2,3.6A3.6,3.6,0,1,1,3.6,0,3.6,3.6,0,0,1,7.2,3.6Z" transform="translate(1188.3 2255.1)" fill="#351f2c"/>
        </g>
        <g id="Group-147" data-name="Group">
          <path id="Vector-123" data-name="Vector" d="M6.3,0A6.385,6.385,0,0,0,0,6.2a11.486,11.486,0,0,0,6.3,2,10.734,10.734,0,0,0,6.3-2A6.253,6.253,0,0,0,6.3,0Z" transform="translate(1185.6 2263.7)" fill="#351f2c"/>
        </g>
        <g id="Group-148" data-name="Group">
          <path id="Vector-124" data-name="Vector" d="M3.3,40.6,0,33.5,64.4,0,86.1,40.6Z" transform="translate(1190.4 2668.5)" fill="#c3a16f"/>
        </g>
        <g id="Group-149" data-name="Group">
          <path id="Vector-125" data-name="Vector" d="M9.8,4.9A4.9,4.9,0,1,1,4.9,0,4.9,4.9,0,0,1,9.8,4.9Z" transform="translate(1246.9 2683.9)" fill="#202343"/>
        </g>
        <g id="Group-150" data-name="Group">
          <path id="Vector-126" data-name="Vector" d="M0,0H35.4V.8H0Z" transform="translate(1041.097 2303.038) rotate(-84.059)" fill="#272652"/>
        </g>
        <g id="Group-151" data-name="Group">
          <path id="Vector-127" data-name="Vector" d="M2.225,48.2S-2.275,16,1.525,0C1.425,0,20.225,30.7,2.225,48.2Z" transform="translate(1291.976 2579.1)" fill="#839a6f"/>
        </g>
        <g id="Group-152" data-name="Group">
          <path id="Vector-128" data-name="Vector" d="M40.3,12.826S20.6-.674,0,.026C-.1.026,16.4,22.626,40.3,12.826Z" transform="translate(1253.899 2614.474)" fill="#839a6f"/>
        </g>
        <g id="Group-153" data-name="Group">
          <path id="Vector-129" data-name="Vector" d="M17.6,55.7S-.2,27.9,0,0C0,0,24.2,21.8,17.6,55.7Z" transform="translate(1265.099 2548.2)" fill="#839a6f"/>
        </g>
        <g id="Group-154" data-name="Group">
          <path id="Vector-130" data-name="Vector" d="M45.4,14.1S24.1-2.8,0,.4C0,.4,21.5,28.3,45.4,14.1Z" transform="translate(1235.1 2585.896)" fill="#839a6f"/>
        </g>
        <g id="Group-155" data-name="Group">
          <path id="Vector-131" data-name="Vector" d="M39,42.1S25.9,5.3,0,0C0,0,8.8,37.1,39,42.1Z" transform="translate(1224.2 2532)" fill="#839a6f"/>
        </g>
        <g id="Group-156" data-name="Group">
          <path id="Vector-132" data-name="Vector" d="M47.355,88.655c-5.3-16.3-20.3-57.9-45.6-88.3a.966.966,0,0,0-1.4-.1.966.966,0,0,0-.1,1.4c29.6,35.6,45,86.4,47.1,93.7Z" transform="translate(1259.745 2570.045)" fill="#fff"/>
        </g>
        <g id="Group-157" data-name="Group">
          <path id="Vector-133" data-name="Vector" d="M43.9,18.5S31.3-.1,0,0C0-.1,20.2,25.8,43.9,18.5Z" transform="translate(1261.9 2639.3)" fill="#839a6f"/>
        </g>
      </g>
    </g>
  </g>
</svg>
